<mxfile host="65bd71144e">
    <diagram id="jjjES4pSvoBlXL_CkdAW" name="Page-1">
        <mxGraphModel dx="884" dy="2580" grid="1" gridSize="10" guides="1" tooltips="1" connect="1" arrows="1" fold="1" page="1" pageScale="1" pageWidth="850" pageHeight="1100" math="0" shadow="0">
            <root>
                <mxCell id="0"/>
                <mxCell id="1" parent="0"/>
                <mxCell id="3" value="BACKEND SKELETON" style="text;strokeColor=none;fillColor=none;html=1;fontSize=24;fontStyle=1;verticalAlign=middle;align=center;" vertex="1" parent="1">
                    <mxGeometry x="340" y="-1130" width="100" height="70" as="geometry"/>
                </mxCell>
                <mxCell id="4" value="USER MODEL" style="text;strokeColor=none;fillColor=none;html=1;fontSize=24;fontStyle=1;verticalAlign=middle;align=center;" vertex="1" parent="1">
                    <mxGeometry x="580" y="-1010" width="100" height="40" as="geometry"/>
                </mxCell>
                <mxCell id="6" value="user_controller&lt;br&gt;" style="text;strokeColor=none;fillColor=none;html=1;fontSize=24;fontStyle=1;verticalAlign=middle;align=center;" vertex="1" parent="1">
                    <mxGeometry x="580" y="-1050" width="100" height="40" as="geometry"/>
                </mxCell>
                <mxCell id="9" value="posts&lt;br&gt;" style="text;strokeColor=none;fillColor=none;html=1;fontSize=24;fontStyle=1;verticalAlign=middle;align=center;" vertex="1" parent="1">
                    <mxGeometry x="158" y="-990" width="100" height="40" as="geometry"/>
                </mxCell>
                <mxCell id="10" value="&amp;nbsp;Campus&lt;br&gt;has many users&lt;br&gt;has many posts through users&lt;br&gt;&amp;nbsp;" style="text;strokeColor=none;fillColor=none;html=1;whiteSpace=wrap;verticalAlign=middle;overflow=hidden;" vertex="1" parent="1">
                    <mxGeometry x="362" y="-990" width="100" height="80" as="geometry"/>
                </mxCell>
                <mxCell id="11" value="&lt;ul&gt;&lt;li&gt;user has many post s&lt;/li&gt;&lt;li&gt;&amp;nbsp;&lt;/li&gt;&lt;/ul&gt;" style="text;strokeColor=none;fillColor=none;html=1;whiteSpace=wrap;verticalAlign=middle;overflow=hidden;" vertex="1" parent="1">
                    <mxGeometry x="540" y="-970" width="180" height="70" as="geometry"/>
                </mxCell>
                <mxCell id="12" value="signal" style="text;strokeColor=none;fillColor=none;html=1;fontSize=24;fontStyle=1;verticalAlign=middle;align=center;" vertex="1" parent="1">
                    <mxGeometry x="570" y="-880" width="100" height="40" as="geometry"/>
                </mxCell>
                <mxCell id="13" value="signal&lt;br&gt;belongs-to user&lt;br&gt;has content isEvent?" style="text;strokeColor=none;fillColor=none;html=1;whiteSpace=wrap;verticalAlign=middle;overflow=hidden;" vertex="1" parent="1">
                    <mxGeometry x="600" y="-830" width="100" height="80" as="geometry"/>
                </mxCell>
                <mxCell id="15" style="edgeStyle=none;html=1;exitX=0;exitY=0.5;exitDx=0;exitDy=0;" edge="1" parent="1" source="13" target="13">
                    <mxGeometry relative="1" as="geometry"/>
                </mxCell>
                <mxCell id="16" value="&lt;ul&gt;&lt;li&gt;belongs to&amp;nbsp;&lt;/li&gt;&lt;/ul&gt;" style="text;strokeColor=none;fillColor=none;html=1;whiteSpace=wrap;verticalAlign=middle;overflow=hidden;" vertex="1" parent="1">
                    <mxGeometry x="158" y="-950" width="100" height="80" as="geometry"/>
                </mxCell>
            </root>
        </mxGraphModel>
    </diagram>
</mxfile>